<svg className="u-svg-link" preserveAspectRatio="xMidYMin slice" viewBox="0 0 512 512">
    <use xmlns:xlink="http://www.w3.org/1999/xlink" xlink:href="#svg-e131"></use>
</svg><svg className="u-svg-content" viewBox="0 0 512 512" id="svg-e131">
    <path
        d="m492 472h-216v-36.914062c109.730469-9.914063 198-102.0625 198-217.085938 0-120.480469-97.5-218-218-218-120.480469 0-218 97.5-218 218 0 58.230469 22.675781 112.976562 63.851562 154.148438 36.421876 36.425781 83.46875 58.359374 134.148438 62.9375v36.914062h-216c-11.046875 0-20 8.953125-20 20s8.953125 20 20 20h472c11.046875 0 20-8.953125 20-20s-8.953125-20-20-20zm-59.128906-274h-77.261719c-1.832031-47.128906-10.902344-103.070312-32.40625-144.816406 59.027344 24.160156 102.289063 79.132812 109.667969 144.816406zm-77.261719 40h77.261719c-7.378906 65.683594-50.640625 120.65625-109.667969 144.816406 21.519531-41.777344 30.578125-97.742187 32.40625-144.816406zm-99.609375-198c38.996094 0 57.757812 114.359375 59.582031 158h-119.164062c2.320312-55.503906 23.808593-158 59.582031-158zm-176.871094 198h77.261719c1.832031 47.132812 10.902344 103.070312 32.40625 144.816406-59.027344-24.160156-102.289063-79.132812-109.667969-144.816406zm77.261719-40h-77.261719c7.378906-65.683594 50.640625-120.65625 109.667969-144.816406-21.523437 41.777344-30.578125 97.746094-32.40625 144.816406zm99.609375 198c-38.996094 0-57.757812-114.359375-59.582031-158h119.160156c-2.308594 55.320312-23.777344 158-59.578125 158zm0 0">
    </path>
</svg>